<?xml version="1.0" encoding="utf-8"?>
<!-- Generator: Adobe Illustrator 28.3.0, SVG Export Plug-In . SVG Version: 6.00 Build 0)  -->
<svg version="1.1" id="Layer_1" xmlns="http://www.w3.org/2000/svg" xmlns:xlink="http://www.w3.org/1999/xlink" x="0px" y="0px"
	 viewBox="0 0 1920 1080" style="enable-background:new 0 0 1920 1080;" xml:space="preserve">
<style type="text/css">
	.st0{fill:#231F20;}
	.st1{fill:#FFFFFF;}
	.st2{fill:#475CAE;}
</style>
<g>
	<g>
		<path class="st2" d="M751.8,637.4h-34.4l-14.2-14.5c-15.1,9.7-31.9,14.5-50.4,14.5c-24,0-45.3-8.1-63.9-24.4
			c-20.3-17.9-30.4-40.8-30.4-68.6c0-27.3,9.6-50,28.7-68.3c18.6-17.7,40.6-26.5,65.9-26.5c23,0,43.6,7.7,61.8,23.2
			c21.9,18.6,32.8,42.9,32.8,72.8c0,23.5-8.6,44.3-25.9,62.5L751.8,637.4z M676.6,562.5l26.3,26.2c11.6-12,17.4-26.9,17.4-44.7
			c0-19.5-6.5-35.8-19.4-48.9c-12.9-13.1-28.9-19.7-48.1-19.7c-19.4,0-35.3,6.6-47.9,19.7c-12.6,13.1-18.9,29.6-18.9,49.6
			c0,19.5,6.5,35.5,19.5,48c13.5,12.8,29,19.2,46.3,19.2c11.8,0,22.5-2.7,32-8.1l-42.6-41.3H676.6z"/>
		<path class="st2" d="M916.2,590.2h-77.5l-20.2,44H789l89.6-192.5l86.4,192.5h-29.9L916.2,590.2z M905,564.5l-26.9-61.6L850,564.5
			H905z"/>
		<path class="st2" d="M1117.7,480l-22.2,13.1c-4.1-7.2-8.1-11.9-11.8-14.1c-3.9-2.5-9-3.8-15.1-3.8c-7.6,0-13.9,2.2-18.9,6.5
			c-5,4.2-7.5,9.5-7.5,16c0,8.8,6.6,16,19.7,21.3l18.1,7.4c14.7,5.9,25.5,13.2,32.3,21.8c6.8,8.6,10.2,19.1,10.2,31.5
			c0,16.7-5.6,30.4-16.7,41.3c-11.2,10.9-25.1,16.4-41.6,16.4c-15.7,0-28.7-4.7-38.9-14c-10.1-9.3-16.4-22.4-18.9-39.3l27.7-6.1
			c1.2,10.6,3.4,18,6.6,22c5.6,7.8,13.8,11.7,24.6,11.7c8.5,0,15.6-2.9,21.2-8.6c5.6-5.7,8.4-12.9,8.4-21.7c0-3.5-0.5-6.7-1.5-9.7
			c-1-2.9-2.5-5.6-4.6-8.1c-2.1-2.5-4.8-4.8-8-6.9c-3.3-2.1-7.2-4.2-11.7-6.2l-17.5-7.3c-24.8-10.5-37.2-25.8-37.2-46
			c0-13.6,5.2-25,15.6-34.1c10.4-9.2,23.3-13.8,38.8-13.8C1089.7,449.5,1106,459.7,1117.7,480z"/>
		<path class="st2" d="M1210.3,523.9h78.1v-70.8h27.3v181.1h-27.3v-84.6h-78.1v84.6H1183V453.1h27.3V523.9z"/>
		<path class="st2" d="M1414.1,453.1v181.1h-27.3V453.1H1414.1z"/>
		<path class="st2" d="M1585.2,478.7h-72.6v43.5h70.5v25.7h-70.5v60.5h72.6v25.7h-99.9V453.1h99.9V478.7z"/>
		<path class="st2" d="M1710,557l56.1,77.2h-33.4l-51.7-74.1h-4.9v74.1h-27.3V453.1h32c23.9,0,41.2,4.5,51.8,13.5
			c11.7,10,17.6,23.2,17.6,39.6c0,12.8-3.7,23.9-11,33.1C1731.8,548.5,1722.1,554.4,1710,557z M1676,536.2h8.7
			c25.9,0,38.8-9.9,38.8-29.7c0-18.5-12.6-27.8-37.8-27.8h-9.7V536.2z"/>
	</g>
	<g>
		
			<ellipse transform="matrix(0.7071 -0.7071 0.7071 0.7071 -290.6057 377.5172)" class="st2" cx="310.4" cy="539.6" rx="155.9" ry="155.9"/>
		<path class="st1" d="M408,566.8c2.5-8.8,3.8-18,3.8-27.6c0-47.8-33.2-88-77.7-98.8c-1.4-11.8-11.4-21-23.7-21
			c-12.2,0-22.2,9.1-23.6,20.9c-44.9,10.6-78.4,50.9-78.4,99c0,10.2,1.5,20.1,4.4,29.5c-5.9,4.3-9.7,11.3-9.7,19.1
			c0,13.2,10.7,23.8,23.8,23.8c3.5,0,6.8-0.8,9.8-2.1c18.5,19.3,44.6,31.4,73.4,31.4c29.4,0,55.9-12.6,74.5-32.6
			c3.6,2.1,7.7,3.3,12.1,3.3c13.2,0,23.8-10.7,23.8-23.8C420.6,578.7,415.5,570.8,408,566.8z M310.1,635.8
			c-26.9,0-51.3-11.1-68.9-29c5.8-4.4,9.5-11.2,9.5-19c0-13.2-10.7-23.8-23.8-23.8c-3.4,0-6.7,0.7-9.6,2c-2.5-8.5-3.8-17.5-3.8-26.8
			c0-45.2,31.2-83.2,73.2-93.7c1.2,12.1,11.3,21.5,23.7,21.5c12.3,0,22.5-9.4,23.7-21.4c41.7,10.7,72.6,48.6,72.6,93.6
			c0,8.9-1.2,17.5-3.5,25.7c-2.1-0.6-4.2-0.9-6.5-0.9c-13.2,0-23.8,10.7-23.8,23.8c0,6.9,2.9,13.1,7.6,17.4
			C362.9,624.1,337.8,635.8,310.1,635.8z"/>
		<path class="st1" d="M310.4,586.9c26.1,0,47.3-21.2,47.3-47.3c0-26.1-21.2-47.3-47.3-47.3c-26.1,0-47.3,21.2-47.3,47.3
			C263.1,565.7,284.3,586.9,310.4,586.9L310.4,586.9z"/>
	</g>
</g>
</svg>
